IKResults
version=1
nRows=20
nColumns=26
inDegrees=yes

Units are S.I. units (second, meters, Newtons, ...)
If the header above contains a line with 'inDegrees', this indicates whether rotational values are in degrees (yes) or radians (no).

endheader
time	pelvis_tilt	pelvis_list	pelvis_rotation	pelvis_tx	pelvis_ty	pelvis_tz	hip_flexion_r	hip_adduction_r	hip_rotation_r	knee_angle_r	knee_angle_r_beta	ankle_angle_r	subtalar_angle_r	mtp_angle_r	hip_flexion_l	hip_adduction_l	hip_rotation_l	knee_angle_l	knee_angle_l_beta	ankle_angle_l	subtalar_angle_l	mtp_angle_l	lumbar_extension	lumbar_bending	lumbar_rotation
      2.50500000	      8.48803300	      0.23040971	      9.72729441	     -0.10518918	      0.97155527	     -0.55819630	    -12.93334290	     -5.10600929	     -7.34000070	     13.43757365	      0.23452990	     -8.60080179	      0.00000000	      0.00000000	     -8.48635774	     -8.60161454	     -4.44220186	     17.39220628	      0.30355126	    -14.24396104	      0.00000000	      0.00000000	    -15.71754886	      1.10635628	     -4.06250049
      2.51000000	      8.75079788	      0.06593399	      9.97611924	     -0.10603792	      0.96587683	     -0.55852076	    -12.64150656	     -5.02602632	     -7.68832025	     15.01759252	      0.26210644	     -6.36297338	      0.00000000	      0.00000000	     -8.26579458	     -8.97307457	     -3.92558922	     18.68048162	      0.32603591	    -12.04127731	      0.00000000	      0.00000000	    -16.19289346	      1.42925210	     -4.24421575
      2.51500000	      9.00453316	     -0.10906544	     10.23017445	     -0.10695352	      0.95999362	     -0.55885780	    -12.24384993	     -4.96143247	     -8.08491718	     16.74898961	      0.29232502	     -4.01023124	      0.00000000	      0.00000000	     -7.93533344	     -9.36627074	     -3.40730264	     20.12668528	      0.35127693	     -9.69699789	      0.00000000	      0.00000000	    -16.66586430	      1.76811295	     -4.42418613
      2.52000000	      9.23168669	     -0.30967678	     10.49315127	     -0.10797024	      0.95385761	     -0.55920752	    -11.72474661	     -4.89459705	     -8.49686216	     18.61168316	      0.32483515	     -1.53841664	      0.00000000	      0.00000000	     -7.44915825	     -9.79318224	     -2.88609327	     21.76636031	      0.37989465	     -7.16136842	      0.00000000	      0.00000000	    -17.11685106	      2.13731966	     -4.60364508
      2.52500000	      9.42671905	     -0.54556316	     10.77000808	     -0.10909788	      0.94746217	     -0.55957092	    -11.09027467	     -4.81092573	     -8.92094098	     20.57971799	      0.35918384	      1.01039499	      0.00000000	      0.00000000	     -6.80015812	    -10.25938396	     -2.35233468	     23.59793819	      0.41186172	     -4.42455413	      0.00000000	      0.00000000	    -17.53702095	      2.54626073	     -4.78081664
      2.53000000	      9.58843364	     -0.81802600	     11.05577649	     -0.11033628	      0.94084281	     -0.55993606	    -10.35432361	     -4.70560900	     -9.34466524	     22.63671054	      0.39508513	      3.58441364	      0.00000000	      0.00000000	     -6.00550190	    -10.75732857	     -1.81434571	     25.59041606	      0.44663702	     -1.56818288	      0.00000000	      0.00000000	    -17.92359301	      2.99460878	     -4.95418560
      2.53500000	      9.72905505	     -1.11593786	     11.33855044	     -0.11166946	      0.93408730	     -0.56027642	     -9.54951133	     -4.58301880	     -9.76905950	     24.75659199	      0.43208404	      6.13528706	      0.00000000	      0.00000000	     -5.11135645	    -11.26736305	     -1.30070638	     27.69335005	      0.48334014	      1.31475690	      0.00000000	      0.00000000	    -18.29089899	      3.46791741	     -5.11671506
      2.54000000	      9.86214262	     -1.41889770	     11.60577055	     -0.11306211	      0.92729472	     -0.56056308	     -8.71211584	     -4.45823721	    -10.20415600	     26.91131031	      0.46969097	      8.63069587	      0.00000000	      0.00000000	     -4.16461895	    -11.76651401	     -0.85049149	     29.86506724	      0.52124375	      4.16077223	      0.00000000	      0.00000000	    -18.65512220	      3.94210816	     -5.26522733
      2.54500000	      9.99547879	     -1.70736937	     11.84505995	     -0.11449468	      0.92056688	     -0.56077402	     -7.85802923	     -4.35426755	    -10.65516515	     29.09521280	      0.50780726	     11.05637398	      0.00000000	      0.00000000	     -3.19732722	    -12.23421940	     -0.49689703	     32.07754869	      0.55985884	      6.94386327	      0.00000000	      0.00000000	    -19.02910203	      4.39282068	     -5.39206205
      2.55000000	     10.13289719	     -1.96972188	     12.04826456	     -0.11595840	      0.91399709	     -0.56090238	     -6.99385358	     -4.28450615	    -11.11955400	     31.30378804	      0.54635417	     13.39370566	      0.00000000	      0.00000000	     -2.22626884	    -12.65804909	     -0.26153327	     34.31064349	      0.59883370	      9.65168110	      0.00000000	      0.00000000	    -19.41974020	      4.80604265	     -5.49458352
      2.55500000	     10.27458660	     -2.20064217	     12.21335779	     -0.11743101	      0.90766238	     -0.56094680	     -6.13057390	     -4.24972711	    -11.58753909	     33.51065222	      0.58487122	     15.62964496	      0.00000000	      0.00000000	     -1.26295690	    -13.03379849	     -0.14730138	     36.54149181	      0.63776935	     12.27693016	      0.00000000	      0.00000000	    -19.82651527	      5.17405382	     -5.57019986
      2.56000000	     10.41364183	     -2.40293669	     12.34339165	     -0.11889042	      0.90160454	     -0.56092360	     -5.26349414	     -4.24688857	    -12.05001892	     35.70428786	      0.62315738	     17.75411485	      0.00000000	      0.00000000	     -0.30785813	    -13.36384096	     -0.14094408	     38.75028495	      0.67632006	     14.81448391	      0.00000000	      0.00000000	    -20.23710833	      5.49971464	     -5.62409401
      2.56500000	     10.53981131	     -2.58625069	     12.44418313	     -0.12033017	      0.89586400	     -0.56085816	     -4.38781154	     -4.26328519	    -12.48374972	     37.85949516	      0.66077284	     19.72954821	      0.00000000	      0.00000000	      0.64211625	    -13.65280135	     -0.20382285	     40.91256688	      0.71405900	     17.22893458	      0.00000000	      0.00000000	    -20.63655235	      5.79362378	     -5.65867588
      2.57000000	     10.64643596	     -2.76134551	     12.52528463	     -0.12173773	      0.89046848	     -0.56078311	     -3.50874350	     -4.28359199	    -12.87440270	     39.94532990	      0.69717753	     21.52208281	      0.00000000	      0.00000000	      1.58445203	    -13.90739827	     -0.29031387	     43.00049308	      0.75050018	     19.48839908	      0.00000000	      0.00000000	    -21.00998467	      6.07049327	     -5.68142857
      2.57500000	     10.72508470	     -2.93441502	     12.59901656	     -0.12310044	      0.88542518	     -0.56072471	     -2.63021402	     -4.29706386	    -13.20830429	     41.93696490	      0.73193812	     23.13082654	      0.00000000	      0.00000000	      2.52105259	    -14.12958185	     -0.34760981	     44.99497032	      0.78531038	     21.57169728	      0.00000000	      0.00000000	    -21.34216356	      6.34002786	     -5.70550172
      2.58000000	     10.77352728	     -3.10538967	     12.67858482	     -0.12441789	      0.88073598	     -0.56071041	     -1.75528164	     -4.30730457	    -13.48649775	     43.82870890	      0.76495528	     24.56768805	      0.00000000	      0.00000000	      3.44996256	    -14.31383422	     -0.32500777	     46.88039510	      0.81821725	     23.46117772	      0.00000000	      0.00000000	    -21.62709468	      6.60689554	     -5.74074147
      2.58500000	     10.78888918	     -3.27059668	     12.77011147	     -0.12570014	      0.87639208	     -0.56074707	     -0.88856985	     -4.31741865	    -13.69716069	     45.60924789	      0.79603155	     25.83247613	      0.00000000	      0.00000000	      4.37277622	    -14.45303732	     -0.18168707	     48.64839691	      0.84907470	     25.13188345	      0.00000000	      0.00000000	    -21.86100575	      6.86897199	     -5.79353614
      2.59000000	     10.77728313	     -3.42171284	     12.87727611	     -0.12693870	      0.87238524	     -0.56082536	     -0.04555715	     -4.33459389	    -13.84114016	     47.27199062	      0.82505188	     26.94346275	      0.00000000	      0.00000000	      5.27717638	    -14.54204591	      0.09762746	     50.28655149	      0.87766589	     26.57446332	      0.00000000	      0.00000000	    -22.04846583	      7.11844092	     -5.87058297
      2.59500000	     10.74039413	     -3.54432174	     12.99731831	     -0.12812758	      0.86870526	     -0.56092407	      0.76666562	     -4.37399392	    -13.91528077	     48.81532599	      0.85198816	     27.92527207	      0.00000000	      0.00000000	      6.15132724	    -14.56715927	      0.51184691	     51.78091528	      0.90374746	     27.77252291	      0.00000000	      0.00000000	    -22.19338962	      7.33691162	     -5.97393748
      2.60000000	     10.68716277	     -3.63058057	     13.12413991	     -0.12925178	      0.86535879	     -0.56102555	      1.52919368	     -4.44158631	    -13.92527337	     50.22671496	      0.87662155	     28.78580960	      0.00000000	      0.00000000	      6.97353816	    -14.52782688	      1.03545968	     53.11694386	      0.92706556	     28.72332966	      0.00000000	      0.00000000	    -22.30454654	      7.51308850	     -6.09297554
